<svg viewBox="0 0 200 200" xmlns="http://www.w3.org/2000/svg">
  <!-- Background -->
  <rect width="100%" height="100%" fill="black" />

  <!-- Yggdrasil trunk -->
  <rect x="95" y="50" width="10" height="100" fill="limegreen" />

  <!-- Yggdrasil branches -->
  <path d="M100,50 Q80,40 70,20" stroke="limegreen" stroke-width="5" fill="none" />
  <path d="M100,50 Q120,40 130,20" stroke="limegreen" stroke-width="5" fill="none" />
  <path d="M100,50 Q90,30 80,10" stroke="limegreen" stroke-width="3" fill="none" />
  <path d="M100,50 Q110,30 120,10" stroke="limegreen" stroke-width="3" fill="none" />

  <!-- Yggdrasil roots -->
  <path d="M100,150 Q80,160 70,180" stroke="limegreen" stroke-width="5" fill="none" />
  <path d="M100,150 Q120,160 130,180" stroke="limegreen" stroke-width="5" fill="none" />
  <path d="M100,150 Q90,170 80,190" stroke="limegreen" stroke-width="3" fill="none" />
  <path d="M100,150 Q110,170 120,190" stroke="limegreen" stroke-width="3" fill="none" />

  <!-- Leaves -->
  <circle cx="70" cy="20" r="10" fill="limegreen" />
  <circle cx="130" cy="20" r="10" fill="limegreen" />
  <circle cx="80" cy="10" r="7" fill="limegreen" />
  <circle cx="120" cy="10" r="7" fill="limegreen" />

  <!-- Additional decorative elements -->
  <circle cx="70" cy="180" r="7" fill="limegreen" />
  <circle cx="130" cy="180" r="7" fill="limegreen" />
  <circle cx="80" cy="190" r="5" fill="limegreen" />
  <circle cx="120" cy="190" r="5" fill="limegreen" />
</svg>
